<?xml version="1.0" encoding="UTF-8"?><svg xmlns="http://www.w3.org/2000/svg" width="1684" height="1191" viewBox="0 0 1684 1191" role="img" aria-labelledby="sheet-title sheet-description"><title id="sheet-title">Dream House P2-W05 refined double-frame exterior wall</title><desc id="sheet-description">D-059 exterior-envelope concept with corrugated metal outside and a smooth concealed-structure P2 interior. Not for construction.</desc><metadata>{&quot;acoustic_rating_claimed&quot;:false,&quot;construction_authority&quot;:false,&quot;drawing&quot;:&quot;DH-ARQ-DET-005-R21&quot;,&quot;fire_rating_claimed&quot;:false,&quot;model_sha256&quot;:&quot;f8f07d6d780877c09058da8b7770b7b59c07f78274137a333694abc9728d9e63&quot;,&quot;nominal_total_mm&quot;:300,&quot;revision&quot;:&quot;0.3-draft-24-P2&quot;,&quot;status&quot;:&quot;issued for D-074 stair-core coordination; CF-011 rear grade discharge, headroom, fire/smoke design, guards, members, joints, bases and foundations remain open; not for construction&quot;,&quot;thermal_performance_claimed&quot;:false,&quot;wall_type&quot;:&quot;P2-W05&quot;}</metadata><defs>
          <marker id="route-arrow" markerWidth="8" markerHeight="8" refX="7" refY="4" orient="auto"><path d="M0,0 L8,4 L0,8 Z" fill="#a63f31"/></marker>
          <marker id="up-arrow" markerWidth="7" markerHeight="7" refX="6" refY="3.5" orient="auto"><path d="M0,0 L7,3.5 L0,7 Z" fill="#76558f"/></marker>
          <style>
            text { font-family: Arial, Helvetica, sans-serif; }
            line, path, rect, circle, polygon, polyline { vector-effect: non-scaling-stroke; }
          </style>
        </defs><rect x="0" y="0" width="1684" height="1191" fill="#f6f3ec"/><rect x="0" y="0" width="1684" height="112" fill="#172a33"/><rect x="0" y="112" width="1684" height="6" fill="#168aa3"/><text x="52" y="45" font-size="9" text-anchor="start" font-weight="700" fill="#9fc4cc" class="">DREAM HOUSE · BOYACA, COLOMBIA</text><text x="52" y="80" font-size="23" text-anchor="start" font-weight="700" fill="#ffffff" class="">P2-W05 · REFINED DOUBLE-FRAME EXTERIOR WALL</text><text x="1040" y="48" font-size="15" text-anchor="end" font-weight="700" fill="#ffffff" class="">DH-ARQ-DET-005-R21</text><text x="1040" y="76" font-size="8.5" text-anchor="end" font-weight="400" fill="#c9d8dc" class="">D-059 · three exterior P2 edges only · corrugated outside / smooth inside</text><text x="1618" y="48" font-size="17" text-anchor="end" font-weight="700" fill="#ffffff" class="">R21</text><text x="1618" y="75" font-size="8.5" text-anchor="end" font-weight="400" fill="#c9d8dc" class="">0.3-draft-24-P2</text><text x="70" y="165" font-size="9" text-anchor="start" font-weight="700" fill="#168aa3" class="">01</text><text x="104" y="165" font-size="12" text-anchor="start" font-weight="700" fill="#172a33" class="">OUTSIDE-TO-INSIDE BUILD-UP · 300 mm NOMINAL</text><line x1="70" y1="176" x2="850" y2="176" stroke="#c3ccce" stroke-width="1"/><rect x="105.0" y="265.0" width="1.2" height="280.0" fill="#66818a" stroke="#172a33" stroke-width="1.1" class="exterior-wall-layer corrugated-metal-rainscreen"/><rect x="106.2" y="265.0" width="40.0" height="280.0" fill="#f7f5ef" stroke="#172a33" stroke-width="1.1" class="exterior-wall-layer ventilated-drainage-cavity"/><rect x="146.2" y="265.0" width="22.0" height="280.0" fill="#b9c6c8" stroke="#172a33" stroke-width="1.1" class="exterior-wall-layer weather-resistive-barrier-and-exterior-sheathing"/><rect x="168.2" y="265.0" width="180.0" height="280.0" fill="#c9ddd5" stroke="#172a33" stroke-width="1.1" class="exterior-wall-layer outer-metal-stud-frame-with-glass-wool-infill"/><line x1="180.2" y1="273.0" x2="195.2" y2="537.0" stroke="#2e7252" stroke-width="1.0" opacity="0.65"/><line x1="202.2" y1="273.0" x2="217.2" y2="537.0" stroke="#2e7252" stroke-width="1.0" opacity="0.65"/><line x1="224.2" y1="273.0" x2="239.2" y2="537.0" stroke="#2e7252" stroke-width="1.0" opacity="0.65"/><line x1="246.2" y1="273.0" x2="261.2" y2="537.0" stroke="#2e7252" stroke-width="1.0" opacity="0.65"/><line x1="268.2" y1="273.0" x2="283.2" y2="537.0" stroke="#2e7252" stroke-width="1.0" opacity="0.65"/><line x1="290.2" y1="273.0" x2="305.2" y2="537.0" stroke="#2e7252" stroke-width="1.0" opacity="0.65"/><line x1="312.2" y1="273.0" x2="327.2" y2="537.0" stroke="#2e7252" stroke-width="1.0" opacity="0.65"/><line x1="334.2" y1="273.0" x2="344.2" y2="537.0" stroke="#2e7252" stroke-width="1.0" opacity="0.65"/><rect x="348.2" y="265.0" width="100.0" height="280.0" fill="#ffffff" stroke="#172a33" stroke-width="1.1" class="exterior-wall-layer clear-decoupling-and-service-cavity"/><rect x="448.2" y="265.0" width="200.0" height="280.0" fill="#d8e7df" stroke="#172a33" stroke-width="1.1" class="exterior-wall-layer inner-metal-stud-frame-with-glass-wool-infill"/><line x1="460.2" y1="273.0" x2="475.2" y2="537.0" stroke="#2e7252" stroke-width="1.0" opacity="0.65"/><line x1="482.2" y1="273.0" x2="497.2" y2="537.0" stroke="#2e7252" stroke-width="1.0" opacity="0.65"/><line x1="504.2" y1="273.0" x2="519.2" y2="537.0" stroke="#2e7252" stroke-width="1.0" opacity="0.65"/><line x1="526.2" y1="273.0" x2="541.2" y2="537.0" stroke="#2e7252" stroke-width="1.0" opacity="0.65"/><line x1="548.2" y1="273.0" x2="563.2" y2="537.0" stroke="#2e7252" stroke-width="1.0" opacity="0.65"/><line x1="570.2" y1="273.0" x2="585.2" y2="537.0" stroke="#2e7252" stroke-width="1.0" opacity="0.65"/><line x1="592.2" y1="273.0" x2="607.2" y2="537.0" stroke="#2e7252" stroke-width="1.0" opacity="0.65"/><line x1="614.2" y1="273.0" x2="629.2" y2="537.0" stroke="#2e7252" stroke-width="1.0" opacity="0.65"/><line x1="636.2" y1="273.0" x2="644.2" y2="537.0" stroke="#2e7252" stroke-width="1.0" opacity="0.65"/><rect x="648.2" y="265.0" width="25.4" height="280.0" fill="#d7d2c8" stroke="#172a33" stroke-width="1.1" class="exterior-wall-layer reclaimed-gypsum-board"/><rect x="673.6" y="265.0" width="25.4" height="280.0" fill="#f7f5ef" stroke="#172a33" stroke-width="1.1" class="exterior-wall-layer new-gypsum-board"/><line x1="105.0" y1="225" x2="699.0" y2="225" stroke="#168aa3" stroke-width="1.8"/><line x1="105.0" y1="216" x2="105.0" y2="234" stroke="#168aa3" stroke-width="1.8"/><line x1="699.0" y1="216" x2="699.0" y2="234" stroke="#168aa3" stroke-width="1.8"/><text x="402.0" y="210" font-size="9.5" text-anchor="middle" font-weight="700" fill="#168aa3" class="">300 mm NOMINAL · 297 mm ILLUSTRATIVE LAYER SUM</text><text x="87.0" y="405.0" font-size="8.5" text-anchor="end" font-weight="700" fill="#172a33" class="">OUTSIDE</text><text x="717.0" y="405.0" font-size="8.5" text-anchor="start" font-weight="700" fill="#172a33" class="">P2 INSIDE</text><text x="772" y="245" font-size="7.0" text-anchor="end" font-weight="700" fill="#168aa3" class="">1</text><rect x="784" y="234" width="13" height="13" fill="#66818a" stroke="#172a33" stroke-width="0.7"/><text x="810" y="245" font-size="7.3" text-anchor="start" font-weight="700" fill="#172a33" class="">CORRUGATED RAINSCREEN · OUTSIDE ONLY</text><text x="772" y="288" font-size="7.0" text-anchor="end" font-weight="700" fill="#168aa3" class="">2</text><rect x="784" y="277" width="13" height="13" fill="#f7f5ef" stroke="#172a33" stroke-width="0.7"/><text x="810" y="288" font-size="7.3" text-anchor="start" font-weight="700" fill="#172a33" class="">20 DRAINED / VENTILATED CAVITY</text><text x="772" y="331" font-size="7.0" text-anchor="end" font-weight="700" fill="#168aa3" class="">3</text><rect x="784" y="320" width="13" height="13" fill="#b9c6c8" stroke="#172a33" stroke-width="0.7"/><text x="810" y="331" font-size="7.3" text-anchor="start" font-weight="700" fill="#172a33" class="">11 SHEATHING + WATER / AIR LAYER</text><text x="772" y="374" font-size="7.0" text-anchor="end" font-weight="700" fill="#168aa3" class="">4</text><rect x="784" y="363" width="13" height="13" fill="#c9ddd5" stroke="#172a33" stroke-width="0.7"/><text x="810" y="374" font-size="7.3" text-anchor="start" font-weight="700" fill="#172a33" class="">90 OUTER FRAME + GLASS WOOL</text><text x="772" y="417" font-size="7.0" text-anchor="end" font-weight="700" fill="#168aa3" class="">5</text><rect x="784" y="406" width="13" height="13" fill="#ffffff" stroke="#172a33" stroke-width="0.7"/><text x="810" y="417" font-size="7.3" text-anchor="start" font-weight="700" fill="#172a33" class="">50 CLEAR SERVICE / DECOUPLING CAVITY</text><text x="772" y="460" font-size="7.0" text-anchor="end" font-weight="700" fill="#168aa3" class="">6</text><rect x="784" y="449" width="13" height="13" fill="#d8e7df" stroke="#172a33" stroke-width="0.7"/><text x="810" y="460" font-size="7.3" text-anchor="start" font-weight="700" fill="#172a33" class="">100 INNER FRAME + GLASS WOOL</text><text x="772" y="503" font-size="7.0" text-anchor="end" font-weight="700" fill="#168aa3" class="">7</text><rect x="784" y="492" width="13" height="13" fill="#d7d2c8" stroke="#172a33" stroke-width="0.7"/><text x="810" y="503" font-size="7.3" text-anchor="start" font-weight="700" fill="#172a33" class="">12.7 RECLAIMED BOARD · CONCEALED</text><text x="772" y="546" font-size="7.0" text-anchor="end" font-weight="700" fill="#168aa3" class="">8</text><rect x="784" y="535" width="13" height="13" fill="#f7f5ef" stroke="#172a33" stroke-width="0.7"/><text x="810" y="546" font-size="7.3" text-anchor="start" font-weight="700" fill="#172a33" class="">12.7 NEW SMOOTH FINISH BOARD</text><text x="70" y="660" font-size="9" text-anchor="start" font-weight="700" fill="#168aa3" class="">02</text><text x="104" y="660" font-size="12" text-anchor="start" font-weight="700" fill="#172a33" class="">P2 PERIMETER APPLICATION</text><line x1="70" y1="671" x2="500" y2="671" stroke="#c3ccce" stroke-width="1"/><rect x="110.0" y="720.0" width="300.0" height="220.0" fill="#eef1ed" stroke="#90a0a5" stroke-width="1.0"/><line x1="110.0" y1="720.0" x2="410.0" y2="720.0" stroke="#36535d" stroke-width="11"/><line x1="110.0" y1="940.0" x2="410.0" y2="940.0" stroke="#36535d" stroke-width="11"/><line x1="410.0" y1="720.0" x2="410.0" y2="940.0" stroke="#36535d" stroke-width="11"/><line x1="110.0" y1="720.0" x2="110.0" y2="940.0" stroke="#172a33" stroke-width="9"/><text x="260.0" y="700.0" font-size="7.4" text-anchor="middle" font-weight="700" fill="#172a33" class="">NORTH · P2-W05</text><text x="260.0" y="966.0" font-size="7.4" text-anchor="middle" font-weight="700" fill="#172a33" class="">SOUTH · P2-W05</text><text x="428.0" y="830.0" font-size="7.0" text-anchor="start" font-weight="700" fill="#172a33" class="">REAR / EAST · P2-W05</text><text x="92.0" y="830.0" font-size="7.0" text-anchor="end" font-weight="700" fill="#172a33" class="">HALL · P2-W04</text><text x="260.0" y="830.0" font-size="11" text-anchor="middle" font-weight="700" fill="#168aa3" class="">PRIVATE P2</text><text x="540" y="660" font-size="9" text-anchor="start" font-weight="700" fill="#168aa3" class="">03</text><text x="574" y="660" font-size="12" text-anchor="start" font-weight="700" fill="#172a33" class="">EXPRESSION RULE</text><line x1="540" y1="671" x2="1020" y2="671" stroke="#c3ccce" stroke-width="1"/><rect x="570" y="720" width="190" height="150" fill="#d9e0e1" stroke="#172a33" stroke-width="1.2"/><rect x="800" y="720" width="190" height="150" fill="#fbfaf6" stroke="#172a33" stroke-width="1.2"/><line x1="580" y1="728" x2="580" y2="862" stroke="#78919a" stroke-width="3"/><line x1="596" y1="728" x2="596" y2="862" stroke="#78919a" stroke-width="3"/><line x1="612" y1="728" x2="612" y2="862" stroke="#78919a" stroke-width="3"/><line x1="628" y1="728" x2="628" y2="862" stroke="#78919a" stroke-width="3"/><line x1="644" y1="728" x2="644" y2="862" stroke="#78919a" stroke-width="3"/><line x1="660" y1="728" x2="660" y2="862" stroke="#78919a" stroke-width="3"/><line x1="676" y1="728" x2="676" y2="862" stroke="#78919a" stroke-width="3"/><line x1="692" y1="728" x2="692" y2="862" stroke="#78919a" stroke-width="3"/><line x1="708" y1="728" x2="708" y2="862" stroke="#78919a" stroke-width="3"/><line x1="724" y1="728" x2="724" y2="862" stroke="#78919a" stroke-width="3"/><line x1="740" y1="728" x2="740" y2="862" stroke="#78919a" stroke-width="3"/><line x1="756" y1="728" x2="756" y2="862" stroke="#78919a" stroke-width="3"/><text x="665" y="895" font-size="8" text-anchor="middle" font-weight="700" fill="#617078" class="">OUTSIDE</text><text x="665" y="918" font-size="7.0" text-anchor="middle" font-weight="400" fill="#172a33" class="">economical corrugated rainscreen</text><text x="895" y="895" font-size="8" text-anchor="middle" font-weight="700" fill="#168aa3" class="">P2 INSIDE</text><text x="895" y="918" font-size="7.0" text-anchor="middle" font-weight="400" fill="#172a33" class="">smooth, quiet, domestic finish</text><text x="895" y="946" font-size="6.8" text-anchor="middle" font-weight="700" fill="#2e7252" class="">NO VISIBLE SHEET / FRAME / STEEL / SERVICES</text><text x="1080" y="660" font-size="9" text-anchor="start" font-weight="700" fill="#168aa3" class="">04</text><text x="1114" y="660" font-size="12" text-anchor="start" font-weight="700" fill="#172a33" class="">OPEN PROFESSIONAL GATES</text><line x1="1080" y1="671" x2="1580" y2="671" stroke="#c3ccce" stroke-width="1"/><text x="1080" y="705" font-size="8.2" text-anchor="start" font-weight="400" fill="#a63f31"><tspan x="1080" dy="0">Climate-specific condensation and vapour-control analysis.</tspan><tspan x="1080" dy="12.709999999999999">Wind resistance, studs, sheathing, anchors and primary-steel interfaces.</tspan><tspan x="1080" dy="12.709999999999999">Window heads, sills, reveals, drainage and continuous air seals.</tspan><tspan x="1080" dy="12.709999999999999">Roof/eave, slab edge, corners, flashings and thermal bridges.</tspan><tspan x="1080" dy="12.709999999999999">Fire, cavity barriers, combustibility and full-height mock-up.</tspan></text><rect x="1080" y="895" width="500" height="96" fill="#f5ded8" stroke="#bf7468" stroke-width="1.2" rx="6"/><text x="1102" y="925" font-size="8" text-anchor="start" font-weight="700" fill="#a63f31" class="">AUTHORITY</text><text x="1102" y="954" font-size="7.6" text-anchor="start" font-weight="700" fill="#6f3028" class="">Envelope principle frozen; no U-value, STC/Rw or fire rating is claimed.</text><text x="1102" y="975" font-size="7.6" text-anchor="start" font-weight="400" fill="#6f3028" class="">Not for product order, fabrication or construction.</text><rect x="36" y="1060" width="1612" height="106" fill="#172a33"/><rect x="36" y="1060" width="1612" height="7" fill="#168aa3"/><text x="56" y="1092" font-size="8" text-anchor="start" font-weight="700" fill="#9fc4cc" class="">CONTROLLED OUTCOME</text><text x="56" y="1120" font-size="13" text-anchor="start" font-weight="700" fill="#ffffff" class="">D-059 · REFINED DOUBLE-FRAME P2 EXTERIOR ENVELOPE · DESIGN COORDINATION</text><text x="56" y="1145" font-size="7.8" text-anchor="start" font-weight="400" fill="#d3dfe2" class="">Current architectural coordination hypothesis. It does not authorize procurement, fabrication or construction.</text><line x1="1160" y1="1067" x2="1160" y2="1166" stroke="#536970" stroke-width="1"/><text x="1180" y="1092" font-size="8" text-anchor="start" font-weight="700" fill="#9fc4cc" class="">SHEET</text><text x="1180" y="1121" font-size="15" text-anchor="start" font-weight="700" fill="#ffffff" class="">DH-ARQ-DET-005-R21</text><text x="1180" y="1146" font-size="7.5" text-anchor="start" font-weight="400" fill="#c9d8dc" class="">R21 · 2026-08-21 · SHA f8f07d6d780877...</text><line x1="1450" y1="1067" x2="1450" y2="1166" stroke="#536970" stroke-width="1"/><text x="1470" y="1092" font-size="8" text-anchor="start" font-weight="700" fill="#9fc4cc" class="">STATUS</text><text x="1470" y="1120" font-size="14" text-anchor="start" font-weight="700" fill="#ffffff" class="">NOT FOR</text><text x="1470" y="1141" font-size="14" text-anchor="start" font-weight="700" fill="#ffffff" class="">CONSTRUCTION</text></svg>
