<svg xmlns="http://www.w3.org/2000/svg" width="1400" height="900" viewBox="0 0 1400 900"><rect width="1400" height="900" fill="#fbfaf7"/><g font-family="Arial"><text x="70" y="45" font-size="26" text-anchor="start" font-weight="700" fill="#243238">REAR ENVELOPE · PRIVATE / SERVICE OPENINGS</text><text x="70" y="72" font-size="12" text-anchor="start" font-weight="400" fill="#59676c">D-083 primary bedroom window + retained wellness and D-082 rescue system · not for construction</text><text x="1325" y="105" font-size="16" text-anchor="end" font-weight="700" fill="#7e3f2c">ELE-002-R07</text></g><polygon points="140.0,665.0 140.0,218.59999999999997 1256.0,181.40000000000003 1256.0,665.0" fill="#aeb5b6" stroke="#172126" stroke-width="4"/><line x1="140.0" y1="429.4" x2="1256.0" y2="429.4" stroke="#657378" stroke-width="1.2" stroke-dasharray="7 5"/><rect x="372.5" y="522.4" width="62.0" height="142.6" fill="#3e4d52" stroke="#172126" stroke-width="2.2"/><text x="403.5" y="593.7" font-size="7" text-anchor="middle" font-weight="700" fill="#f5f3ed">EXT-BOD</text><rect x="645.3" y="516.2" width="62.0" height="148.79999999999998" fill="#3e4d52" stroke="#172126" stroke-width="2.2"/><text x="676.3" y="590.6" font-size="7" text-anchor="middle" font-weight="700" fill="#f5f3ed">EXT-ESC</text><rect x="195.8" y="246.5" width="148.79999999999998" height="179.79999999999998" fill="#426671" stroke="#172126" stroke-width="2.2" class="rear-p2-window"/><line x1="270.2" y1="246.5" x2="270.2" y2="426.29999999999995" stroke="#9bb3b8"/><text x="270.2" y="339.4" font-size="7" text-anchor="middle" font-weight="700" fill="#eff5f5">PRIMARY · 2 x 1.20</text><rect x="946.0" y="268.2" width="248.0" height="74.39999999999999" fill="#426671" stroke="#172126" stroke-width="2.2" class="rear-p2-window"/><line x1="1028.6666666666667" y1="268.2" x2="1028.6666666666667" y2="342.59999999999997" stroke="#9bb3b8"/><line x1="1111.3333333333333" y1="268.2" x2="1111.3333333333333" y2="342.59999999999997" stroke="#9bb3b8"/><text x="1070.0" y="308.4" font-size="7" text-anchor="middle" font-weight="700" fill="#eff5f5">WELLNESS</text><rect x="837.5" y="299.19999999999993" width="62.0" height="74.39999999999999" fill="#426671" stroke="#172126" stroke-width="2.2" class="rescue-window"/><text x="868.5" y="339.3999999999999" font-size="7" text-anchor="middle" font-weight="700" fill="#eff5f5">RESCUE · D-082</text><line x1="800.3000000000001" y1="419.4" x2="800.3000000000001" y2="630.0" stroke="#a63f31" stroke-width="5" class="foldout-ladder-closed-profile"/><line x1="788.3000000000001" y1="446.27272727272725" x2="812.3000000000001" y2="446.27272727272725" stroke="#f2c6aa" stroke-width="1.3"/><line x1="788.3000000000001" y1="463.1454545454545" x2="812.3000000000001" y2="463.1454545454545" stroke="#f2c6aa" stroke-width="1.3"/><line x1="788.3000000000001" y1="480.0181818181818" x2="812.3000000000001" y2="480.0181818181818" stroke="#f2c6aa" stroke-width="1.3"/><line x1="788.3000000000001" y1="496.8909090909091" x2="812.3000000000001" y2="496.8909090909091" stroke="#f2c6aa" stroke-width="1.3"/><line x1="788.3000000000001" y1="513.7636363636364" x2="812.3000000000001" y2="513.7636363636364" stroke="#f2c6aa" stroke-width="1.3"/><line x1="788.3000000000001" y1="530.6363636363636" x2="812.3000000000001" y2="530.6363636363636" stroke="#f2c6aa" stroke-width="1.3"/><line x1="788.3000000000001" y1="547.5090909090909" x2="812.3000000000001" y2="547.5090909090909" stroke="#f2c6aa" stroke-width="1.3"/><line x1="788.3000000000001" y1="564.3818181818182" x2="812.3000000000001" y2="564.3818181818182" stroke="#f2c6aa" stroke-width="1.3"/><line x1="788.3000000000001" y1="581.2545454545455" x2="812.3000000000001" y2="581.2545454545455" stroke="#f2c6aa" stroke-width="1.3"/><line x1="788.3000000000001" y1="598.1272727272727" x2="812.3000000000001" y2="598.1272727272727" stroke="#f2c6aa" stroke-width="1.3"/><text x="782.3000000000001" y="547.2" font-size="6.5" text-anchor="middle" font-weight="700" fill="#8e3825" transform="rotate(-90 782.3000000000001 547.2)">VERTICAL FOLDOUT LADDER</text><rect x="100.0" y="665.0" width="1196.0" height="42" fill="#d6d2ca" stroke="#858b89"/><text x="698.0" y="692.0" font-size="8" text-anchor="middle" font-weight="700" fill="#243238">REAR GRADE, DRAINAGE, TRANSFER SAFETY AND SITE RELATIONSHIP REMAIN OPEN</text><rect x="140" y="790" width="1116" height="62" fill="#fff4df" stroke="#bd5c3c"/><text x="160" y="814" font-size="11" text-anchor="start" font-weight="700" fill="#8e3825">COORDINATION NOTE</text><text x="160" y="836" font-size="8" text-anchor="start" font-weight="400" fill="#243238">D-083 coordinates one 2.40 m primary window; wellness and D-082 rescue geometry are retained. Site orientation, privacy, solar control, safe glass, fall protection, structure, flashings and cost remain open.</text></svg>