<svg xmlns="http://www.w3.org/2000/svg" width="1400" height="900" viewBox="0 0 1400 900"><rect width="1400" height="900" fill="#fbfaf7"/><g font-family="Arial"><text x="70" y="45" font-size="26" text-anchor="start" font-weight="700" fill="#243238">PLANTA BAJA DETALLADA · ANTEPROYECTO</text><text x="70" y="72" font-size="12" text-anchor="start" font-weight="400" fill="#59676c">Rev. 0.3-borrador-05-PB · espesores y equipamiento de estudio · cotas en metros</text><text x="1325" y="105" font-size="16" text-anchor="end" font-weight="700" fill="#7e3f2c">PLN-001-R04</text></g><defs><pattern id="concrete" width="9" height="9" patternUnits="userSpaceOnUse"><path d="M0 9L9 0" stroke="#d9d7d1" stroke-width=".5"/></pattern><pattern id="wood" width="8" height="8" patternUnits="userSpaceOnUse"><line x1="2" y1="0" x2="2" y2="8" stroke="#9a704d" stroke-width="1"/></pattern><pattern id="service" width="7" height="7" patternUnits="userSpaceOnUse"><path d="M0 0L7 7M7 0L0 7" stroke="#c5ceca" stroke-width=".45"/></pattern></defs><rect x="124.0" y="155.0" width="81.0" height="486.0" fill="#dedbd4" stroke="#8e9493" stroke-width="1"/><text x="164.5" y="398.0" font-size="8" text-anchor="middle" font-weight="400" fill="#243238" transform="rotate(-90 164.5 398.0)">PLATAFORMA FRONTAL 3,00 m · pendiente 1,5–2% hacia drenaje</text><rect x="205.0" y="155.0" width="972.0" height="486.0" fill="url(#concrete)" stroke="#172126" stroke-width="6"/><rect x="209.86" y="159.85999999999999" width="962.28" height="476.28000000000003" fill="#fbfaf7" stroke="#7b878a" stroke-width="1.2"/><rect x="209.86" y="452.0" width="278.64" height="184.14000000000001" fill="#d6e0e4" stroke="#9aa2a2" stroke-width=".7" stroke-dasharray="5 4" opacity=".72"/><text x="349.18" y="544.0699999999999" font-size="9" text-anchor="middle" font-weight="700" fill="#45545a">CAR PROJECT · 70,4 m² netos aprox.</text><rect x="209.86" y="159.85999999999999" width="278.64" height="184.14000000000001" fill="#d6e0e4" stroke="#9aa2a2" stroke-width=".7" stroke-dasharray="5 4" opacity=".72"/><text x="349.18" y="251.93" font-size="9" text-anchor="middle" font-weight="700" fill="#45545a">RC / DIY · 70,4 m² netos aprox.</text><rect x="488.5" y="159.85999999999999" width="54.0" height="476.28000000000003" fill="#f1eee7" stroke="#9aa2a2" stroke-width=".7" stroke-dasharray="5 4" opacity=".72"/><text x="515.5" y="317.0" font-size="9" text-anchor="middle" font-weight="700" fill="#45545a">FRANJA DE RESPIRACIÓN</text><rect x="542.5" y="241.39999999999998" width="229.5" height="313.2" fill="#e6d7c7" stroke="#9aa2a2" stroke-width=".7" stroke-dasharray="5 4" opacity=".72"/><text x="657.25" y="300.8" font-size="9" text-anchor="middle" font-weight="700" fill="#45545a">SALA MONUMENTAL</text><rect x="772.0" y="425.0" width="148.5" height="211.14000000000001" fill="#e7d3b9" stroke="#9aa2a2" stroke-width=".7" stroke-dasharray="5 4" opacity=".72"/><text x="846.25" y="530.5699999999999" font-size="9" text-anchor="middle" font-weight="700" fill="#45545a">COMEDOR</text><rect x="772.0" y="159.85999999999999" width="148.5" height="184.14000000000001" fill="#e7d3b9" stroke="#9aa2a2" stroke-width=".7" stroke-dasharray="5 4" opacity=".72"/><text x="846.25" y="251.93" font-size="9" text-anchor="middle" font-weight="700" fill="#45545a">ESTAR / TRANSICIÓN</text><rect x="920.5" y="159.85999999999999" width="135.0" height="476.28000000000003" fill="#ead4b6" stroke="#9aa2a2" stroke-width=".7" stroke-dasharray="5 4" opacity=".72"/><text x="988.0" y="263.0" font-size="9" text-anchor="middle" font-weight="700" fill="#45545a">COCINA + GALERÍA DOMÉSTICA</text><rect x="209.86" y="344.0" width="962.28" height="108.0" fill="none" stroke="#b47d16" stroke-width="2" stroke-dasharray="10 5"/><text x="691.0" y="402.0" font-size="10" text-anchor="middle" font-weight="700" fill="#8a6518">EJE PEATONAL PERCEPTUAL LIBRE · 4,00 m</text><rect x="1055.5" y="155.0" width="5.4" height="486.0" fill="url(#wood)" stroke="#6e4b30" stroke-width="1.5"/><rect x="1060.9" y="581.06" width="111.24000000000001" height="55.08" fill="#d9d2bd" stroke="#536166" stroke-width="1"/><text x="1116.52" y="604.6" font-size="9" text-anchor="middle" font-weight="700" fill="#243238">Pantry / apoyo limpio</text><text x="1116.52" y="618.6" font-size="7" text-anchor="middle" font-weight="400" fill="#526168">10.8 m² brutos</text><g stroke="#9d4a2f" fill="none" stroke-width="1.6"><line x1="1055.5" y1="609.95" x2="1079.8" y2="609.95"/><path d="M 1055.5 609.95 A 24.3 24.3 0 0 1 1055.5 585.6500000000001" stroke-dasharray="4 3"/></g><rect x="1060.9" y="446.06000000000006" width="111.24000000000001" height="125.27999999999999" fill="#cad0c9" stroke="#536166" stroke-width="1"/><text x="1116.52" y="504.7" font-size="9" text-anchor="middle" font-weight="700" fill="#243238">Bodega</text><text x="1116.52" y="518.7" font-size="7" text-anchor="middle" font-weight="400" fill="#526168">22.5 m² brutos</text><g stroke="#9d4a2f" fill="none" stroke-width="1.6"><line x1="1055.5" y1="526.25" x2="1079.8" y2="526.25"/><path d="M 1055.5 526.25 A 24.3 24.3 0 0 1 1055.5 501.95" stroke-dasharray="4 3"/></g><rect x="1060.9" y="348.86" width="111.24000000000001" height="87.47999999999999" fill="#d2c5b9" stroke="#536166" stroke-width="1"/><text x="1116.52" y="388.6" font-size="9" text-anchor="middle" font-weight="700" fill="#243238">Escalera protegida</text><text x="1116.52" y="402.6" font-size="7" text-anchor="middle" font-weight="400" fill="#526168">16.2 m² brutos</text><g stroke="#754522" fill="none" stroke-width="3.0"><line x1="1055.5" y1="407.45" x2="1082.5" y2="407.45"/><path d="M 1055.5 407.45 A 27.0 27.0 0 0 1 1055.5 380.45" stroke-dasharray="4 3"/></g><rect x="1060.9" y="284.05999999999995" width="111.24000000000001" height="55.08000000000001" fill="#bfd6d3" stroke="#536166" stroke-width="1"/><text x="1116.52" y="307.6" font-size="9" text-anchor="middle" font-weight="700" fill="#243238">Baño PB</text><text x="1116.52" y="321.6" font-size="7" text-anchor="middle" font-weight="400" fill="#526168">10.8 m² brutos</text><g stroke="#9d4a2f" fill="none" stroke-width="1.6"><line x1="1055.5" y1="323.75" x2="1079.8" y2="323.75"/><path d="M 1055.5 323.75 A 24.3 24.3 0 0 1 1055.5 299.45" stroke-dasharray="4 3"/></g><rect x="1060.9" y="159.85999999999999" width="111.24000000000001" height="114.47999999999998" fill="#c4d1cc" stroke="#536166" stroke-width="1"/><text x="1116.52" y="213.10000000000002" font-size="9" text-anchor="middle" font-weight="700" fill="#243238">Homelab / técnico</text><text x="1116.52" y="227.10000000000002" font-size="7" text-anchor="middle" font-weight="400" fill="#526168">20.7 m² brutos</text><g stroke="#9d4a2f" fill="none" stroke-width="1.6"><line x1="1055.5" y1="245.45" x2="1079.8" y2="245.45"/><path d="M 1055.5 245.45 A 24.3 24.3 0 0 1 1055.5 221.14999999999998" stroke-dasharray="4 3"/></g><rect x="1060.9" y="574.175" width="111.24000000000001" height="4.05" fill="#526168" stroke="none"/><rect x="1060.9" y="438.5" width="111.24000000000001" height="5.4" fill="#526168" stroke="none"/><rect x="1060.9" y="341.3" width="111.24000000000001" height="5.4" fill="#526168" stroke="none"/><rect x="1060.9" y="277.17499999999995" width="111.24000000000001" height="4.05" fill="#526168" stroke="none"/><line x1="1177.0" y1="499.25" x2="1177.0" y2="526.25" stroke="#236a45" stroke-width="7"/><line x1="1177.0" y1="380.45" x2="1177.0" y2="407.45" stroke="#236a45" stroke-width="7"/><rect x="925.9" y="614.0" width="121.5" height="20.25" fill="#b69066" stroke="#60492f" stroke-width="1.2"/><rect x="925.9" y="614.0" width="22.95" height="20.25" fill="none" stroke="#72583c" stroke-width=".7"/><text x="937.375" y="626.99" font-size="6" text-anchor="middle" font-weight="700" fill="#243238">FR</text><rect x="950.2" y="614.0" width="22.95" height="20.25" fill="none" stroke="#72583c" stroke-width=".7"/><text x="961.6750000000001" y="626.99" font-size="6" text-anchor="middle" font-weight="700" fill="#243238">H</text><rect x="974.5" y="614.0" width="22.95" height="20.25" fill="none" stroke="#72583c" stroke-width=".7"/><text x="985.975" y="626.99" font-size="6" text-anchor="middle" font-weight="700" fill="#243238">PL</text><rect x="998.8" y="614.0" width="22.95" height="20.25" fill="none" stroke="#72583c" stroke-width=".7"/><text x="1010.275" y="626.99" font-size="6" text-anchor="middle" font-weight="700" fill="#243238">LV</text><rect x="1023.1" y="614.0" width="22.95" height="20.25" fill="none" stroke="#72583c" stroke-width=".7"/><text x="1034.575" y="626.99" font-size="6" text-anchor="middle" font-weight="700" fill="#243238">AL</text><rect x="934.0" y="549.2" width="97.2" height="32.4" fill="#d1b187" stroke="#60492f" stroke-width="1.3" rx="3"/><text x="982.6" y="568.4" font-size="8" text-anchor="middle" font-weight="700" fill="#243238">ISLA 3,60 × 1,20 · 4 puestos</text><circle cx="943.45" cy="542.45" r="7" fill="#f4f1ea" stroke="#667378"/><circle cx="966.4000000000001" cy="542.45" r="7" fill="#f4f1ea" stroke="#667378"/><circle cx="989.35" cy="542.45" r="7" fill="#f4f1ea" stroke="#667378"/><circle cx="1012.3000000000001" cy="542.45" r="7" fill="#f4f1ea" stroke="#667378"/><text x="988.0" y="597.8" font-size="7" text-anchor="middle" font-weight="400" fill="#7b552b">1,20 m operativo</text><text x="988.0" y="528.95" font-size="7" text-anchor="middle" font-weight="400" fill="#7b552b">≥1,50 m social</text><rect x="799.0" y="546.5" width="97.2" height="35.1" fill="#eee6d7" stroke="#59676c" stroke-width="1.2" rx="3"/><text x="847.6" y="567.05" font-size="8" text-anchor="middle" font-weight="400" fill="#243238">MESA 12 P · 3,60 × 1,30</text><circle cx="807.1" cy="587.0" r="7" fill="#f4f1ea" stroke="#667378"/><circle cx="807.1" cy="541.1" r="7" fill="#f4f1ea" stroke="#667378"/><circle cx="823.3000000000001" cy="587.0" r="7" fill="#f4f1ea" stroke="#667378"/><circle cx="823.3000000000001" cy="541.1" r="7" fill="#f4f1ea" stroke="#667378"/><circle cx="839.5" cy="587.0" r="7" fill="#f4f1ea" stroke="#667378"/><circle cx="839.5" cy="541.1" r="7" fill="#f4f1ea" stroke="#667378"/><circle cx="855.7" cy="587.0" r="7" fill="#f4f1ea" stroke="#667378"/><circle cx="855.7" cy="541.1" r="7" fill="#f4f1ea" stroke="#667378"/><circle cx="871.9" cy="587.0" r="7" fill="#f4f1ea" stroke="#667378"/><circle cx="871.9" cy="541.1" r="7" fill="#f4f1ea" stroke="#667378"/><circle cx="888.1" cy="587.0" r="7" fill="#f4f1ea" stroke="#667378"/><circle cx="888.1" cy="541.1" r="7" fill="#f4f1ea" stroke="#667378"/><rect x="583.0" y="406.1" width="156.6" height="135.0" fill="#d9c6b2" stroke="#8b7765" stroke-width="1" rx="18"/><rect x="593.8" y="501.95000000000005" width="129.6" height="28.35" fill="#bda893" stroke="#796756" stroke-width="1" rx="10"/><rect x="593.8" y="420.95" width="129.6" height="28.35" fill="#bda893" stroke="#796756" stroke-width="1" rx="10"/><rect x="637.0" y="461.45" width="43.2" height="32.4" fill="#eee6d7" stroke="#59676c" stroke-width="1.2" rx="3"/><text x="658.6" y="480.65" font-size="8" text-anchor="middle" font-weight="400" fill="#243238">CENTRO</text><rect x="556.0" y="550.55" width="81.0" height="81.0" fill="#d3ded9" stroke="#5d6d69" stroke-width="1"/><rect x="565.45" y="601.85" width="59.400000000000006" height="20.25" fill="#eee6d7" stroke="#59676c" stroke-width="1.2" rx="3"/><text x="595.1500000000001" y="614.975" font-size="8" text-anchor="middle" font-weight="400" fill="#243238">ESCRITORIO</text><text x="596.5" y="562.7" font-size="7" text-anchor="middle" font-weight="700" fill="#243238">TRABAJO 1 · 3×3</text><rect x="556.0" y="164.45000000000005" width="81.0" height="81.0" fill="#d3ded9" stroke="#5d6d69" stroke-width="1"/><rect x="565.45" y="215.75" width="59.400000000000006" height="20.25" fill="#eee6d7" stroke="#59676c" stroke-width="1.2" rx="3"/><text x="595.1500000000001" y="228.875" font-size="8" text-anchor="middle" font-weight="400" fill="#243238">ESCRITORIO</text><text x="596.5" y="176.60000000000002" font-size="7" text-anchor="middle" font-weight="700" fill="#243238">TRABAJO 2 · 3×3</text><line x1="642.4" y1="641.0" x2="758.5" y2="641.0" stroke="#27859a" stroke-width="8"/><line x1="642.4" y1="633.4399999999999" x2="758.5" y2="633.4399999999999" stroke="#846e93" stroke-width="2" stroke-dasharray="5 3"/><text x="700.45" y="626.15" font-size="7" text-anchor="middle" font-weight="400" fill="#246b7a">VIDRIO PRINCIPAL PROVISIONAL · bolsillo de cortina acústica</text><rect x="248.2" y="469.54999999999995" width="172.8" height="159.3" fill="none" stroke="#b14e35" stroke-width="1.8" stroke-dasharray="9 5"/><text x="334.6" y="474.95" font-size="7" text-anchor="middle" font-weight="700" fill="#9a3d2a">PRISMA DE EXCLUSIÓN LIFT / VEHÍCULO</text><g stroke="#4e5d63" fill="#edf0ef" stroke-width="1.2"><rect x="265.75" y="545.15" width="129.6" height="54.0" rx="18"/><rect x="296.854" y="551.63" width="67.392" height="41.04" rx="10" fill="#c9d6d8"/><circle cx="289.078" cy="545.15" r="5" fill="#30393d"/><circle cx="372.022" cy="545.15" r="5" fill="#30393d"/><circle cx="289.078" cy="599.15" r="5" fill="#30393d"/><circle cx="372.022" cy="599.15" r="5" fill="#30393d"/></g><rect x="259.0" y="515.45" width="9.45" height="108.0" fill="#48555b" stroke="#263238" stroke-width="1"/><rect x="389.95" y="515.45" width="9.45" height="108.0" fill="#48555b" stroke="#263238" stroke-width="1"/><rect x="219.85" y="462.8" width="243.0" height="20.25" fill="#aeb9bc" stroke="#5d6a6e" stroke-width="1"/><text x="341.35" y="475.925" font-size="7" text-anchor="middle" font-weight="400" fill="#243238">BANCO AUTOMOTRIZ 9,00 m · extracción en fuente / potencia dedicada</text><rect x="219.85" y="171.20000000000005" width="243.0" height="20.25" fill="#aeb9bc" stroke="#5d6a6e" stroke-width="1"/><text x="341.35" y="184.18999999999997" font-size="7" text-anchor="middle" font-weight="400" fill="#243238">BANCO RC / ELECTRÓNICA 9,00 m</text><rect x="280.6" y="254.90000000000003" width="121.5" height="43.2" fill="#eee6d7" stroke="#59676c" stroke-width="1.2" rx="3"/><text x="341.35" y="279.50000000000006" font-size="8" text-anchor="middle" font-weight="400" fill="#243238">BANCO CENTRAL RC · 4,50 × 1,60</text><rect x="222.55" y="203.60000000000002" width="32.4" height="48.6" fill="#c8d2d4" stroke="#54636a" stroke-width="1"/><text x="238.75" y="230.89999999999998" font-size="7" text-anchor="middle" font-weight="700" fill="#243238">3D ×3</text><rect x="425.05" y="203.60000000000002" width="33.75" height="48.6" fill="#d9c3b5" stroke="#8f4e38" stroke-width="1.2"/><text x="441.925" y="231.95" font-size="7" text-anchor="middle" font-weight="700" fill="#8f3c28">LiPo</text><text x="441.925" y="221.14999999999998" font-size="6" text-anchor="middle" font-weight="400" fill="#8f3c28">ventilado</text><path d="M 442.05999999999995 203.60000000000002 L 442.05999999999995 164.45000000000005" stroke="#27859a" stroke-width="2" stroke-dasharray="5 3"/><rect x="1070.35" y="304.85" width="32.4" height="29.700000000000003" fill="none" stroke="#27859a" stroke-width="1.2"/><ellipse cx="1154.05" cy="323.75" rx="9" ry="13" fill="#f8faf9" stroke="#59686d"/><rect x="1108.15" y="285.40999999999997" width="27.0" height="12.15" fill="#f8faf9" stroke="#59686d" stroke-width="1"/><rect x="1070.35" y="241.39999999999998" width="28.35" height="21.6" fill="#434f54" stroke="#1f292d" stroke-width="1"/><text x="1084.525" y="255.2" font-size="6" text-anchor="middle" font-weight="700" fill="#f6f4ed">RACK</text><rect x="1128.4" y="217.10000000000002" width="33.75" height="45.9" fill="url(#service)" stroke="#59686d" stroke-width="1"/><text x="1145.275" y="243.05" font-size="6" text-anchor="middle" font-weight="700" fill="#243238">UPS / TAB</text><rect x="1070.35" y="591.05" width="27.0" height="37.8" fill="#d9d1bd" stroke="#6d6657" stroke-width="1"/><text x="1083.85" y="612.95" font-size="6" text-anchor="middle" font-weight="700" fill="#243238">FRÍO</text><rect x="1123.0" y="591.05" width="39.15" height="37.8" fill="#d9d1bd" stroke="#6d6657" stroke-width="1"/><text x="1142.575" y="612.95" font-size="6" text-anchor="middle" font-weight="700" fill="#243238">LIMPIEZA</text><rect x="1061.44" y="349.94000000000005" width="109.61999999999999" height="85.32000000000001" fill="#f0ebe4" stroke="#45545a" stroke-width="1.2"/><line x1="1061.44" y1="357.6963636363637" x2="1103.0956" y2="357.6963636363637" stroke="#69777c"/><line x1="1129.4044000000001" y1="357.6963636363637" x2="1171.06" y2="357.6963636363637" stroke="#69777c"/><line x1="1061.44" y1="365.4527272727273" x2="1103.0956" y2="365.4527272727273" stroke="#69777c"/><line x1="1129.4044000000001" y1="365.4527272727273" x2="1171.06" y2="365.4527272727273" stroke="#69777c"/><line x1="1061.44" y1="373.20909090909095" x2="1103.0956" y2="373.20909090909095" stroke="#69777c"/><line x1="1129.4044000000001" y1="373.20909090909095" x2="1171.06" y2="373.20909090909095" stroke="#69777c"/><line x1="1061.44" y1="380.9654545454546" x2="1103.0956" y2="380.9654545454546" stroke="#69777c"/><line x1="1129.4044000000001" y1="380.9654545454546" x2="1171.06" y2="380.9654545454546" stroke="#69777c"/><line x1="1061.44" y1="388.7218181818182" x2="1103.0956" y2="388.7218181818182" stroke="#69777c"/><line x1="1129.4044000000001" y1="388.7218181818182" x2="1171.06" y2="388.7218181818182" stroke="#69777c"/><line x1="1061.44" y1="396.4781818181819" x2="1103.0956" y2="396.4781818181819" stroke="#69777c"/><line x1="1129.4044000000001" y1="396.4781818181819" x2="1171.06" y2="396.4781818181819" stroke="#69777c"/><line x1="1061.44" y1="404.2345454545455" x2="1103.0956" y2="404.2345454545455" stroke="#69777c"/><line x1="1129.4044000000001" y1="404.2345454545455" x2="1171.06" y2="404.2345454545455" stroke="#69777c"/><line x1="1061.44" y1="411.99090909090916" x2="1103.0956" y2="411.99090909090916" stroke="#69777c"/><line x1="1129.4044000000001" y1="411.99090909090916" x2="1171.06" y2="411.99090909090916" stroke="#69777c"/><line x1="1061.44" y1="419.7472727272728" x2="1103.0956" y2="419.7472727272728" stroke="#69777c"/><line x1="1129.4044000000001" y1="419.7472727272728" x2="1171.06" y2="419.7472727272728" stroke="#69777c"/><line x1="1061.44" y1="427.5036363636364" x2="1103.0956" y2="427.5036363636364" stroke="#69777c"/><line x1="1129.4044000000001" y1="427.5036363636364" x2="1171.06" y2="427.5036363636364" stroke="#69777c"/><line x1="1116.25" y1="416.48960000000005" x2="1116.25" y2="368.71040000000005" stroke="#45545a" stroke-width="1.4"/><polyline points="1109.6728,375.53600000000006 1116.25,368.71040000000005 1122.8272,375.53600000000006" fill="none" stroke="#45545a"/><line x1="205.0" y1="479.0" x2="205.0" y2="608.6" stroke="#b95336" stroke-width="8"/><text x="198.25" y="543.8" font-size="6" text-anchor="middle" font-weight="400" fill="#873923" transform="rotate(-90 198.25 543.8)">Portón carro</text><line x1="205.0" y1="376.40000000000003" x2="205.0" y2="419.6" stroke="#b95336" stroke-width="8"/><text x="198.25" y="398.0" font-size="6" text-anchor="middle" font-weight="400" fill="#873923" transform="rotate(-90 198.25 398.0)">Acceso peatonal</text><line x1="205.0" y1="187.39999999999998" x2="205.0" y2="317.0" stroke="#b95336" stroke-width="8"/><text x="198.25" y="252.2" font-size="6" text-anchor="middle" font-weight="400" fill="#873923" transform="rotate(-90 198.25 252.2)">Portón RC</text><line x1="245.5" y1="641.0" x2="439.9" y2="641.0" stroke="#27859a" stroke-width="8"/><text x="342.7" y="628.0" font-size="7" text-anchor="middle" font-weight="700" fill="#246b7a">VENTANAL CAR PROJECT · 7,20 m</text><line x1="245.5" y1="155.0" x2="439.9" y2="155.0" stroke="#27859a" stroke-width="8"/><text x="342.7" y="173.0" font-size="7" text-anchor="middle" font-weight="700" fill="#246b7a">VENTANAL TALLER RC / AVIONES · 7,20 m</text><line x1="205.0" y1="137.0" x2="205.0" y2="659.0" stroke="#9ea5a5" stroke-width=".6" stroke-dasharray="4 5"/><circle cx="205.0" cy="124.0" r="10" fill="#fbfaf7" stroke="#5a666a"/><text x="205.0" y="128.0" font-size="8" text-anchor="middle" font-weight="400" fill="#243238">A</text><line x1="367.0" y1="137.0" x2="367.0" y2="659.0" stroke="#9ea5a5" stroke-width=".6" stroke-dasharray="4 5"/><circle cx="367.0" cy="124.0" r="10" fill="#fbfaf7" stroke="#5a666a"/><text x="367.0" y="128.0" font-size="8" text-anchor="middle" font-weight="400" fill="#243238">B</text><line x1="529.0" y1="137.0" x2="529.0" y2="659.0" stroke="#9ea5a5" stroke-width=".6" stroke-dasharray="4 5"/><circle cx="529.0" cy="124.0" r="10" fill="#fbfaf7" stroke="#5a666a"/><text x="529.0" y="128.0" font-size="8" text-anchor="middle" font-weight="400" fill="#243238">C</text><line x1="691.0" y1="137.0" x2="691.0" y2="659.0" stroke="#9ea5a5" stroke-width=".6" stroke-dasharray="4 5"/><circle cx="691.0" cy="124.0" r="10" fill="#fbfaf7" stroke="#5a666a"/><text x="691.0" y="128.0" font-size="8" text-anchor="middle" font-weight="400" fill="#243238">D</text><line x1="853.0" y1="137.0" x2="853.0" y2="659.0" stroke="#9ea5a5" stroke-width=".6" stroke-dasharray="4 5"/><circle cx="853.0" cy="124.0" r="10" fill="#fbfaf7" stroke="#5a666a"/><text x="853.0" y="128.0" font-size="8" text-anchor="middle" font-weight="400" fill="#243238">E</text><line x1="1015.0" y1="137.0" x2="1015.0" y2="659.0" stroke="#9ea5a5" stroke-width=".6" stroke-dasharray="4 5"/><circle cx="1015.0" cy="124.0" r="10" fill="#fbfaf7" stroke="#5a666a"/><text x="1015.0" y="128.0" font-size="8" text-anchor="middle" font-weight="400" fill="#243238">F</text><line x1="1177.0" y1="137.0" x2="1177.0" y2="659.0" stroke="#9ea5a5" stroke-width=".6" stroke-dasharray="4 5"/><circle cx="1177.0" cy="124.0" r="10" fill="#fbfaf7" stroke="#5a666a"/><text x="1177.0" y="128.0" font-size="8" text-anchor="middle" font-weight="400" fill="#243238">G</text><line x1="205.0" y1="683.0" x2="1177.0" y2="683.0" stroke="#536166"/><line x1="205.0" y1="677.0" x2="205.0" y2="689.0" stroke="#536166"/><line x1="488.5" y1="677.0" x2="488.5" y2="689.0" stroke="#536166"/><line x1="772.0" y1="677.0" x2="772.0" y2="689.0" stroke="#536166"/><line x1="1055.5" y1="677.0" x2="1055.5" y2="689.0" stroke="#536166"/><line x1="1177.0" y1="677.0" x2="1177.0" y2="689.0" stroke="#536166"/><text x="346.75" y="676.0" font-size="8" text-anchor="middle" font-weight="400" fill="#243238">10,50</text><text x="630.25" y="676.0" font-size="8" text-anchor="middle" font-weight="400" fill="#243238">10,50</text><text x="913.75" y="676.0" font-size="8" text-anchor="middle" font-weight="400" fill="#243238">10,50</text><text x="1116.25" y="676.0" font-size="8" text-anchor="middle" font-weight="400" fill="#243238">4,50</text><text x="691.0" y="708.0" font-size="10" text-anchor="middle" font-weight="700" fill="#243238">36,00 m nominales exteriores</text><rect x="70" y="735" width="1260" height="110" fill="#fff4df" stroke="#bd5c3c" stroke-width="1"/><text x="90" y="760" font-size="13" text-anchor="start" font-weight="700" fill="#8e3825">CRITERIOS DE ESTA REVISIÓN</text><text x="90" y="782" font-size="9" text-anchor="start" font-weight="400" fill="#3f4c51">• Envolvente 0,18 m; gran muro 0,20 m; divisiones 0,15 m y escalera 0,20 m: valores de estudio, no especificación IFC.</text><text x="90" y="800" font-size="9" text-anchor="start" font-weight="400" fill="#3f4c51">• Gran muro continuo de madera/listón con respaldo absorbente: puertas de pantry, bodega, baño y homelab enrasadas; escalera deliberadamente legible.</text><text x="90" y="818" font-size="9" text-anchor="start" font-weight="400" fill="#3f4c51">• Losa industrial continua; juntas, pendientes, cargas del lift, drenajes, estructura, fuego, extracción y MEP siguen pendientes de ingeniería y predio.</text><text x="90" y="836" font-size="9" text-anchor="start" font-weight="700" fill="#8e3825">• NO APTO PARA CONSTRUIR. El mobiliario y equipos son envolventes de prueba y deben sustituirse por fichas reales.</text></svg>