<svg xmlns="http://www.w3.org/2000/svg" width="1400" height="900" viewBox="0 0 1400 900"><rect width="1400" height="900" fill="#fbfaf7"/><g font-family="Arial"><text x="70" y="45" font-size="26" text-anchor="start" font-weight="700" fill="#243238">FACHADA POSTERIOR · SERVICIOS Y NIVEL PRIVADO</text><text x="70" y="72" font-size="12" text-anchor="start" font-weight="400" fill="#59676c">Dos salidas PB + ventanas controladas de P2 · posición final sujeta a fachada, estructura y predio</text><text x="1325" y="105" font-size="16" text-anchor="end" font-weight="700" fill="#7e3f2c">ELE-002-R04</text></g><defs><pattern id="metalr" width="16" height="16" patternUnits="userSpaceOnUse"><line x1="3" y1="0" x2="3" y2="16" stroke="#8e9799" stroke-width=".8"/></pattern></defs><polygon points="140,645 140,198.59999999999997 1256,161.40000000000003 1256,645" fill="#aeb5b6" stroke="#172126" stroke-width="4"/><line x1="140" y1="198.59999999999997" x2="1256" y2="161.40000000000003" stroke="#e7e9e7" stroke-width="4"/><text x="150" y="186.59999999999997" font-size="9" text-anchor="start" font-weight="700" fill="#243238">LADO BAJO ≈ 7,20 m · LATERAL A</text><text x="1246" y="149.40000000000003" font-size="9" text-anchor="end" font-weight="700" fill="#243238">LADO ALTO ≈ 7,80 m · LATERAL B</text><rect x="372.5" y="502.4" width="62.0" height="142.6" fill="#59666a" stroke="#172126" stroke-width="2.5"/><text x="403.5" y="573.6999999999999" font-size="8" text-anchor="middle" font-weight="700" fill="#f5f3ed">SALIDA BODEGA</text><rect x="645.3" y="496.20000000000005" width="62.0" height="148.79999999999998" fill="#37454a" stroke="#172126" stroke-width="2.5"/><text x="676.3" y="570.6" font-size="8" text-anchor="middle" font-weight="700" fill="#f5f3ed">DESCARGA ESCALERA</text><rect x="189.6" y="235.79999999999995" width="155.0" height="167.4" fill="#426671" stroke="#172126" stroke-width="2.2"/><line x1="267.1" y1="235.79999999999995" x2="267.1" y2="403.19999999999993" stroke="#88a2a8"/><line x1="189.6" y1="341.2" x2="344.6" y2="341.2" stroke="#d2e0e2" stroke-width="1.5"/><text x="267.1" y="322.49999999999994" font-size="8" text-anchor="middle" font-weight="700" fill="#eff5f5">SUITE PRINCIPAL POSTERIOR · PISO A TECHO</text><rect x="946.0" y="241.99999999999997" width="248.0" height="102.3" fill="#426671" stroke="#172126" stroke-width="2.2"/><line x1="1028.6666666666667" y1="241.99999999999997" x2="1028.6666666666667" y2="344.29999999999995" stroke="#88a2a8"/><line x1="1111.3333333333333" y1="241.99999999999997" x2="1111.3333333333333" y2="344.29999999999995" stroke="#88a2a8"/><text x="1070.0" y="296.15" font-size="8" text-anchor="middle" font-weight="700" fill="#eff5f5">WELLNESS · PROVISIONAL</text><line x1="140" y1="409.4" x2="1256" y2="409.4" stroke="#6f7a7d" stroke-width="1" stroke-dasharray="7 5"/><text x="1248" y="401.4" font-size="8" text-anchor="end" font-weight="700" fill="#5c676b">NIVEL P2 ≈ +3,80</text><rect x="95" y="645" width="1206" height="42" fill="#d6d2ca" stroke="#858b89"/><text x="698.0" y="672" font-size="9" text-anchor="middle" font-weight="700" fill="#243238">FRANJA POSTERIOR DE SERVICIO · drenaje, acceso y paisaje por definir</text><line x1="140" y1="745" x2="1256" y2="745" stroke="#536166"/><line x1="140" y1="738" x2="140" y2="752" stroke="#536166"/><line x1="1256" y1="738" x2="1256" y2="752" stroke="#536166"/><text x="698.0" y="736" font-size="10" text-anchor="middle" font-weight="700" fill="#243238">18,00 m</text><rect x="140" y="790" width="1116" height="62" fill="#fff4df" stroke="#bd5c3c"/><text x="160" y="814" font-size="11" text-anchor="start" font-weight="700" fill="#8e3825">NOTA DE COORDINACIÓN</text><text x="160" y="836" font-size="8" text-anchor="start" font-weight="400" fill="#243238">Fachada contenida: los servicios permanecen opacos y el vidrio se concentra en espacios privados. Las ventanas son reservas; orientación, antepechos, control solar y estructura no están congelados.</text></svg>