<svg xmlns="http://www.w3.org/2000/svg" width="1400" height="900" viewBox="0 0 1400 900"><rect width="1400" height="900" fill="#fbfaf7"/><g font-family="Arial"><text x="70" y="45" font-size="26" text-anchor="start" font-weight="700" fill="#243238">COORDINATED GROUND FLOOR · SCHEMATIC DESIGN</text><text x="70" y="72" font-size="12" text-anchor="start" font-weight="400" fill="#59676c">D-068 mirrored wall-integrated workstations · study dimensions in metres</text><text x="1325" y="105" font-size="16" text-anchor="end" font-weight="700" fill="#7e3f2c">PLN-001-R05</text></g><defs><pattern id="concrete" width="9" height="9" patternUnits="userSpaceOnUse"><path d="M0 9L9 0" stroke="#d9d7d1" stroke-width=".5"/></pattern><pattern id="wood" width="8" height="8" patternUnits="userSpaceOnUse"><line x1="2" y1="0" x2="2" y2="8" stroke="#9a704d" stroke-width="1"/></pattern><pattern id="service" width="7" height="7" patternUnits="userSpaceOnUse"><path d="M0 0L7 7M7 0L0 7" stroke="#c5ceca" stroke-width=".45"/></pattern></defs><rect x="124.0" y="155.0" width="81.0" height="486.0" fill="#dedbd4" stroke="#8e9493" stroke-width="1"/><text x="164.5" y="398.0" font-size="8" text-anchor="middle" font-weight="400" fill="#243238" transform="rotate(-90 164.5 398.0)">FRONT CONCRETE APRON 3.00 m · 1.5–2% fall to drainage</text><rect x="205.0" y="155.0" width="972.0" height="486.0" fill="url(#concrete)" stroke="#172126" stroke-width="6"/><rect x="209.86" y="159.85999999999999" width="962.28" height="476.28000000000003" fill="#fbfaf7" stroke="#7b878a" stroke-width="1.2"/><rect x="209.86" y="452.0" width="278.64" height="184.14000000000001" fill="#d6e0e4" stroke="#9aa2a2" stroke-width=".7" stroke-dasharray="5 4" opacity=".72"/><text x="349.18" y="544.0699999999999" font-size="9" text-anchor="middle" font-weight="700" fill="#45545a">PROJECT CAR · approx. 70.4 m² net</text><rect x="209.86" y="159.85999999999999" width="278.64" height="184.14000000000001" fill="#d6e0e4" stroke="#9aa2a2" stroke-width=".7" stroke-dasharray="5 4" opacity=".72"/><text x="349.18" y="251.93" font-size="9" text-anchor="middle" font-weight="700" fill="#45545a">RC / DIY · approx. 70.4 m² net</text><rect x="488.5" y="159.85999999999999" width="54.0" height="476.28000000000003" fill="#f1eee7" stroke="#9aa2a2" stroke-width=".7" stroke-dasharray="5 4" opacity=".72"/><text x="515.5" y="317.0" font-size="9" text-anchor="middle" font-weight="700" fill="#45545a">BREATHING BUFFER</text><rect x="542.5" y="241.39999999999998" width="229.5" height="313.2" fill="#e6d7c7" stroke="#9aa2a2" stroke-width=".7" stroke-dasharray="5 4" opacity=".72"/><text x="657.25" y="300.8" font-size="9" text-anchor="middle" font-weight="700" fill="#45545a">MONUMENTAL LIVING HALL</text><rect x="772.0" y="425.0" width="148.5" height="211.14000000000001" fill="#e7d3b9" stroke="#9aa2a2" stroke-width=".7" stroke-dasharray="5 4" opacity=".72"/><text x="846.25" y="530.5699999999999" font-size="9" text-anchor="middle" font-weight="700" fill="#45545a">DINING</text><rect x="772.0" y="159.85999999999999" width="148.5" height="184.14000000000001" fill="#e7d3b9" stroke="#9aa2a2" stroke-width=".7" stroke-dasharray="5 4" opacity=".72"/><text x="846.25" y="251.93" font-size="9" text-anchor="middle" font-weight="700" fill="#45545a">LOUNGE / TRANSITION</text><rect x="920.5" y="159.85999999999999" width="135.0" height="476.28000000000003" fill="#ead4b6" stroke="#9aa2a2" stroke-width=".7" stroke-dasharray="5 4" opacity=".72"/><text x="988.0" y="263.0" font-size="9" text-anchor="middle" font-weight="700" fill="#45545a">KITCHEN + DOMESTIC GALLERY</text><rect x="209.86" y="344.0" width="962.28" height="108.0" fill="none" stroke="#b47d16" stroke-width="2" stroke-dasharray="10 5"/><text x="691.0" y="402.0" font-size="10" text-anchor="middle" font-weight="700" fill="#8a6518">CLEAR PERCEPTUAL PEDESTRIAN AXIS · 4.00 m</text><rect x="1055.5" y="155.0" width="5.4" height="486.0" fill="url(#wood)" stroke="#6e4b30" stroke-width="1.5"/><rect x="1060.9" y="578.225" width="111.24000000000001" height="57.91499999999999" fill="#d9d2bd" stroke="#536166" stroke-width="1"/><text x="1116.52" y="604.6" font-size="9" text-anchor="middle" font-weight="700" fill="#243238">Pantry / clean support</text><text x="1116.52" y="618.6" font-size="7" text-anchor="middle" font-weight="400" fill="#526168">10.8 m² gross</text><g stroke="#9d4a2f" fill="none" stroke-width="1.6"><line x1="1055.5" y1="609.95" x2="1079.8" y2="609.95"/><path d="M 1055.5 609.95 A 24.3 24.3 0 0 1 1055.5 585.6500000000001" stroke-dasharray="4 3"/></g><rect x="1060.9" y="443.9" width="111.24000000000001" height="130.27500000000003" fill="#cad0c9" stroke="#536166" stroke-width="1"/><text x="1116.52" y="504.7" font-size="9" text-anchor="middle" font-weight="700" fill="#243238">Storage</text><text x="1116.52" y="518.7" font-size="7" text-anchor="middle" font-weight="400" fill="#526168">22.5 m² gross</text><g stroke="#9d4a2f" fill="none" stroke-width="1.6"><line x1="1055.5" y1="526.25" x2="1079.8" y2="526.25"/><path d="M 1055.5 526.25 A 24.3 24.3 0 0 1 1055.5 501.95" stroke-dasharray="4 3"/></g><rect x="1060.9" y="346.7" width="111.24000000000001" height="91.80000000000001" fill="#d2c5b9" stroke="#536166" stroke-width="1"/><text x="1116.52" y="388.6" font-size="9" text-anchor="middle" font-weight="700" fill="#243238">Protected stair</text><text x="1116.52" y="402.6" font-size="7" text-anchor="middle" font-weight="400" fill="#526168">16.2 m² gross</text><g stroke="#754522" fill="none" stroke-width="3.0"><line x1="1055.5" y1="407.45" x2="1082.5" y2="407.45"/><path d="M 1055.5 407.45 A 27.0 27.0 0 0 1 1055.5 380.45" stroke-dasharray="4 3"/></g><rect x="1060.9" y="281.22499999999997" width="111.24000000000001" height="60.07500000000004" fill="#bfd6d3" stroke="#536166" stroke-width="1"/><text x="1116.52" y="307.6" font-size="9" text-anchor="middle" font-weight="700" fill="#243238">Ground-floor bathroom</text><text x="1116.52" y="321.6" font-size="7" text-anchor="middle" font-weight="400" fill="#526168">10.8 m² gross</text><g stroke="#9d4a2f" fill="none" stroke-width="1.6"><line x1="1055.5" y1="323.75" x2="1079.8" y2="323.75"/><path d="M 1055.5 323.75 A 24.3 24.3 0 0 1 1055.5 299.45" stroke-dasharray="4 3"/></g><rect x="1060.9" y="159.85999999999999" width="111.24000000000001" height="117.31500000000001" fill="#c4d1cc" stroke="#536166" stroke-width="1"/><text x="1116.52" y="213.10000000000002" font-size="9" text-anchor="middle" font-weight="700" fill="#243238">Homelab / technical</text><text x="1116.52" y="227.10000000000002" font-size="7" text-anchor="middle" font-weight="400" fill="#526168">20.7 m² gross</text><g stroke="#9d4a2f" fill="none" stroke-width="1.6"><line x1="1055.5" y1="245.45" x2="1079.8" y2="245.45"/><path d="M 1055.5 245.45 A 24.3 24.3 0 0 1 1055.5 221.14999999999998" stroke-dasharray="4 3"/></g><rect x="1060.9" y="574.175" width="111.24000000000001" height="4.05" fill="#526168" stroke="none"/><rect x="1060.9" y="438.5" width="111.24000000000001" height="5.4" fill="#526168" stroke="none"/><rect x="1060.9" y="341.3" width="111.24000000000001" height="5.4" fill="#526168" stroke="none"/><rect x="1060.9" y="277.17499999999995" width="111.24000000000001" height="4.05" fill="#526168" stroke="none"/><line x1="1177.0" y1="499.25" x2="1177.0" y2="526.25" stroke="#236a45" stroke-width="7"/><line x1="1177.0" y1="380.45" x2="1177.0" y2="407.45" stroke="#236a45" stroke-width="7"/><rect x="925.9" y="614.0" width="121.5" height="20.25" fill="#b69066" stroke="#60492f" stroke-width="1.2"/><rect x="925.9" y="614.0" width="22.95" height="20.25" fill="none" stroke="#72583c" stroke-width=".7"/><text x="937.375" y="626.99" font-size="6" text-anchor="middle" font-weight="700" fill="#243238">FR</text><rect x="950.2" y="614.0" width="22.95" height="20.25" fill="none" stroke="#72583c" stroke-width=".7"/><text x="961.6750000000001" y="626.99" font-size="6" text-anchor="middle" font-weight="700" fill="#243238">H</text><rect x="974.5" y="614.0" width="22.95" height="20.25" fill="none" stroke="#72583c" stroke-width=".7"/><text x="985.975" y="626.99" font-size="6" text-anchor="middle" font-weight="700" fill="#243238">PL</text><rect x="998.8" y="614.0" width="22.95" height="20.25" fill="none" stroke="#72583c" stroke-width=".7"/><text x="1010.275" y="626.99" font-size="6" text-anchor="middle" font-weight="700" fill="#243238">LV</text><rect x="1023.1" y="614.0" width="22.95" height="20.25" fill="none" stroke="#72583c" stroke-width=".7"/><text x="1034.575" y="626.99" font-size="6" text-anchor="middle" font-weight="700" fill="#243238">AL</text><rect x="934.0" y="549.2" width="97.2" height="32.4" fill="#d1b187" stroke="#60492f" stroke-width="1.3" rx="3"/><text x="982.6" y="568.4" font-size="8" text-anchor="middle" font-weight="700" fill="#243238">ISLAND 3.60 × 1.20 · 4 seats</text><circle cx="943.45" cy="542.45" r="7" fill="#f4f1ea" stroke="#667378"/><circle cx="966.4000000000001" cy="542.45" r="7" fill="#f4f1ea" stroke="#667378"/><circle cx="989.35" cy="542.45" r="7" fill="#f4f1ea" stroke="#667378"/><circle cx="1012.3000000000001" cy="542.45" r="7" fill="#f4f1ea" stroke="#667378"/><text x="988.0" y="597.8" font-size="7" text-anchor="middle" font-weight="400" fill="#7b552b">1.20 m working side</text><text x="988.0" y="528.95" font-size="7" text-anchor="middle" font-weight="400" fill="#7b552b">≥1.50 m social side</text><rect x="799.0" y="546.5" width="97.2" height="35.1" fill="#eee6d7" stroke="#59676c" stroke-width="1.2" rx="3"/><text x="847.6" y="567.05" font-size="8" text-anchor="middle" font-weight="400" fill="#243238">12-SEAT TABLE · 3.60 × 1.30</text><circle cx="807.1" cy="587.0" r="7" fill="#f4f1ea" stroke="#667378"/><circle cx="807.1" cy="541.1" r="7" fill="#f4f1ea" stroke="#667378"/><circle cx="823.3000000000001" cy="587.0" r="7" fill="#f4f1ea" stroke="#667378"/><circle cx="823.3000000000001" cy="541.1" r="7" fill="#f4f1ea" stroke="#667378"/><circle cx="839.5" cy="587.0" r="7" fill="#f4f1ea" stroke="#667378"/><circle cx="839.5" cy="541.1" r="7" fill="#f4f1ea" stroke="#667378"/><circle cx="855.7" cy="587.0" r="7" fill="#f4f1ea" stroke="#667378"/><circle cx="855.7" cy="541.1" r="7" fill="#f4f1ea" stroke="#667378"/><circle cx="871.9" cy="587.0" r="7" fill="#f4f1ea" stroke="#667378"/><circle cx="871.9" cy="541.1" r="7" fill="#f4f1ea" stroke="#667378"/><circle cx="888.1" cy="587.0" r="7" fill="#f4f1ea" stroke="#667378"/><circle cx="888.1" cy="541.1" r="7" fill="#f4f1ea" stroke="#667378"/><rect x="583.0" y="406.1" width="156.6" height="135.0" fill="#d9c6b2" stroke="#8b7765" stroke-width="1" rx="18"/><rect x="593.8" y="501.95000000000005" width="129.6" height="28.35" fill="#bda893" stroke="#796756" stroke-width="1" rx="10"/><rect x="593.8" y="420.95" width="129.6" height="28.35" fill="#bda893" stroke="#796756" stroke-width="1" rx="10"/><rect x="637.0" y="461.45" width="43.2" height="32.4" fill="#eee6d7" stroke="#59676c" stroke-width="1.2" rx="3"/><text x="658.6" y="480.65" font-size="8" text-anchor="middle" font-weight="400" fill="#243238">CENTRE</text><rect x="556.0" y="555.14" width="81.0" height="81.0" fill="#e8f0ed" stroke="#5d6d69" stroke-width="1.2" stroke-dasharray="7 4" opacity=".62"/><rect x="564.1" y="614.54" width="64.8" height="21.6" fill="#d7c29b" stroke="#3d4c51" stroke-width="1.4" rx="2"/><text x="596.5" y="627.34" font-size="5.8" text-anchor="middle" font-weight="700" fill="#4f3925">FIXED WORKTOP</text><line x1="564.1" y1="636.14" x2="628.9000000000001" y2="636.14" stroke="#26363b" stroke-width="4"/><line x1="569.5" y1="636.14" x2="569.5" y2="614.54" stroke="#3d4c51" stroke-width="1.5"/><line x1="596.5" y1="636.14" x2="596.5" y2="614.54" stroke="#3d4c51" stroke-width="1.5"/><line x1="623.5" y1="636.14" x2="623.5" y2="614.54" stroke="#3d4c51" stroke-width="1.5"/><rect x="587.5899999999999" y="587.27" width="17.82" height="17.82" fill="#f5f1e8" stroke="#667378" stroke-width="1" rx="8"/><text x="596.5" y="563.78" font-size="6.6" text-anchor="middle" font-weight="700" fill="#294b52">WORKSTATION 1 · 3 × 3 m CLEAR</text><line x1="556.0" y1="641.0" x2="637.0" y2="641.0" stroke="#27859a" stroke-width="8"/><text x="596.5" y="609.0" font-size="6.5" text-anchor="middle" font-weight="700" fill="#246b7a">WORKSTATION 1 WINDOW · 3.00 m</text><rect x="556.0" y="159.85999999999999" width="81.0" height="81.0" fill="#e8f0ed" stroke="#5d6d69" stroke-width="1.2" stroke-dasharray="7 4" opacity=".62"/><rect x="564.1" y="159.85999999999999" width="64.8" height="21.6" fill="#d7c29b" stroke="#3d4c51" stroke-width="1.4" rx="2"/><text x="596.5" y="172.66000000000005" font-size="5.8" text-anchor="middle" font-weight="700" fill="#4f3925">FIXED WORKTOP</text><line x1="564.1" y1="159.85999999999999" x2="628.9000000000001" y2="159.85999999999999" stroke="#26363b" stroke-width="4"/><line x1="569.5" y1="159.85999999999999" x2="569.5" y2="181.46" stroke="#3d4c51" stroke-width="1.5"/><line x1="596.5" y1="159.85999999999999" x2="596.5" y2="181.46" stroke="#3d4c51" stroke-width="1.5"/><line x1="623.5" y1="159.85999999999999" x2="623.5" y2="181.46" stroke="#3d4c51" stroke-width="1.5"/><rect x="587.5899999999999" y="190.64000000000001" width="17.82" height="17.82" fill="#f5f1e8" stroke="#667378" stroke-width="1" rx="8"/><text x="596.5" y="232.21999999999997" font-size="6.6" text-anchor="middle" font-weight="700" fill="#294b52">WORKSTATION 2 · 3 × 3 m CLEAR</text><line x1="556.0" y1="155.0" x2="637.0" y2="155.0" stroke="#27859a" stroke-width="8"/><text x="596.5" y="145.0" font-size="6.5" text-anchor="middle" font-weight="700" fill="#246b7a">WORKSTATION 2 WINDOW · 3.00 m</text><line x1="642.4" y1="641.0" x2="758.5" y2="641.0" stroke="#27859a" stroke-width="8"/><line x1="642.4" y1="633.4399999999999" x2="758.5" y2="633.4399999999999" stroke="#846e93" stroke-width="2" stroke-dasharray="5 3"/><text x="700.45" y="656.0" font-size="7" text-anchor="middle" font-weight="400" fill="#246b7a">PROVISIONAL MAIN GLAZING · acoustic-curtain pocket</text><rect x="248.2" y="469.54999999999995" width="172.8" height="159.3" fill="none" stroke="#b14e35" stroke-width="1.8" stroke-dasharray="9 5"/><text x="334.6" y="474.95" font-size="7" text-anchor="middle" font-weight="700" fill="#9a3d2a">LIFT / VEHICLE EXCLUSION ENVELOPE</text><g stroke="#4e5d63" fill="#edf0ef" stroke-width="1.2"><rect x="265.75" y="545.15" width="129.6" height="54.0" rx="18"/><rect x="296.854" y="551.63" width="67.392" height="41.04" rx="10" fill="#c9d6d8"/><circle cx="289.078" cy="545.15" r="5" fill="#30393d"/><circle cx="372.022" cy="545.15" r="5" fill="#30393d"/><circle cx="289.078" cy="599.15" r="5" fill="#30393d"/><circle cx="372.022" cy="599.15" r="5" fill="#30393d"/></g><rect x="259.0" y="515.45" width="9.45" height="108.0" fill="#48555b" stroke="#263238" stroke-width="1"/><rect x="389.95" y="515.45" width="9.45" height="108.0" fill="#48555b" stroke="#263238" stroke-width="1"/><rect x="219.85" y="462.8" width="243.0" height="20.25" fill="#aeb9bc" stroke="#314247" stroke-width="1.4"/><text x="341.35" y="475.925" font-size="6.5" text-anchor="middle" font-weight="700" fill="#243238">PROJECT-CAR STEEL BENCH · LIFT HOLD</text><rect x="219.85" y="159.85999999999999" width="243.0" height="20.25" fill="#aeb9bc" stroke="#314247" stroke-width="1.4"/><text x="341.35" y="190.10999999999999" font-size="6.5" text-anchor="middle" font-weight="700" fill="#243238">RC / ELECTRONICS INTEGRATED BENCH · 9.00 m</text><rect x="280.6" y="254.90000000000003" width="121.5" height="43.2" fill="#eee6d7" stroke="#59676c" stroke-width="1.2" rx="3"/><text x="341.35" y="279.50000000000006" font-size="8" text-anchor="middle" font-weight="400" fill="#243238">CENTRAL RC BENCH · 4.50 × 1.60</text><rect x="222.55" y="203.60000000000002" width="32.4" height="48.6" fill="#c8d2d4" stroke="#54636a" stroke-width="1"/><text x="238.75" y="230.89999999999998" font-size="7" text-anchor="middle" font-weight="700" fill="#243238">3D ×3</text><rect x="425.05" y="203.60000000000002" width="33.75" height="48.6" fill="#d9c3b5" stroke="#8f4e38" stroke-width="1.2"/><text x="441.925" y="231.95" font-size="7" text-anchor="middle" font-weight="700" fill="#8f3c28">LiPo</text><text x="441.925" y="221.14999999999998" font-size="6" text-anchor="middle" font-weight="400" fill="#8f3c28">ventilated</text><path d="M 442.05999999999995 203.60000000000002 L 442.05999999999995 164.45000000000005" stroke="#27859a" stroke-width="2" stroke-dasharray="5 3"/><rect x="1070.35" y="304.85" width="32.4" height="29.700000000000003" fill="none" stroke="#27859a" stroke-width="1.2"/><ellipse cx="1154.05" cy="323.75" rx="9" ry="13" fill="#f8faf9" stroke="#59686d"/><rect x="1108.15" y="285.40999999999997" width="27.0" height="12.15" fill="#f8faf9" stroke="#59686d" stroke-width="1"/><rect x="1070.35" y="241.39999999999998" width="28.35" height="21.6" fill="#434f54" stroke="#1f292d" stroke-width="1"/><text x="1084.525" y="255.2" font-size="6" text-anchor="middle" font-weight="700" fill="#f6f4ed">RACK</text><rect x="1128.4" y="217.10000000000002" width="33.75" height="45.9" fill="url(#service)" stroke="#59686d" stroke-width="1"/><text x="1145.275" y="243.05" font-size="6" text-anchor="middle" font-weight="700" fill="#243238">UPS / TAB</text><rect x="1070.35" y="591.05" width="27.0" height="37.8" fill="#d9d1bd" stroke="#6d6657" stroke-width="1"/><text x="1083.85" y="612.95" font-size="6" text-anchor="middle" font-weight="700" fill="#243238">FRÍO</text><rect x="1123.0" y="591.05" width="39.15" height="37.8" fill="#d9d1bd" stroke="#6d6657" stroke-width="1"/><text x="1142.575" y="612.95" font-size="6" text-anchor="middle" font-weight="700" fill="#243238">LIMPIEZA</text><rect x="1061.44" y="349.94000000000005" width="109.61999999999999" height="85.32000000000001" fill="#f0ebe4" stroke="#45545a" stroke-width="1.2"/><line x1="1061.44" y1="357.6963636363637" x2="1103.0956" y2="357.6963636363637" stroke="#69777c"/><line x1="1129.4044000000001" y1="357.6963636363637" x2="1171.06" y2="357.6963636363637" stroke="#69777c"/><line x1="1061.44" y1="365.4527272727273" x2="1103.0956" y2="365.4527272727273" stroke="#69777c"/><line x1="1129.4044000000001" y1="365.4527272727273" x2="1171.06" y2="365.4527272727273" stroke="#69777c"/><line x1="1061.44" y1="373.20909090909095" x2="1103.0956" y2="373.20909090909095" stroke="#69777c"/><line x1="1129.4044000000001" y1="373.20909090909095" x2="1171.06" y2="373.20909090909095" stroke="#69777c"/><line x1="1061.44" y1="380.9654545454546" x2="1103.0956" y2="380.9654545454546" stroke="#69777c"/><line x1="1129.4044000000001" y1="380.9654545454546" x2="1171.06" y2="380.9654545454546" stroke="#69777c"/><line x1="1061.44" y1="388.7218181818182" x2="1103.0956" y2="388.7218181818182" stroke="#69777c"/><line x1="1129.4044000000001" y1="388.7218181818182" x2="1171.06" y2="388.7218181818182" stroke="#69777c"/><line x1="1061.44" y1="396.4781818181819" x2="1103.0956" y2="396.4781818181819" stroke="#69777c"/><line x1="1129.4044000000001" y1="396.4781818181819" x2="1171.06" y2="396.4781818181819" stroke="#69777c"/><line x1="1061.44" y1="404.2345454545455" x2="1103.0956" y2="404.2345454545455" stroke="#69777c"/><line x1="1129.4044000000001" y1="404.2345454545455" x2="1171.06" y2="404.2345454545455" stroke="#69777c"/><line x1="1061.44" y1="411.99090909090916" x2="1103.0956" y2="411.99090909090916" stroke="#69777c"/><line x1="1129.4044000000001" y1="411.99090909090916" x2="1171.06" y2="411.99090909090916" stroke="#69777c"/><line x1="1061.44" y1="419.7472727272728" x2="1103.0956" y2="419.7472727272728" stroke="#69777c"/><line x1="1129.4044000000001" y1="419.7472727272728" x2="1171.06" y2="419.7472727272728" stroke="#69777c"/><line x1="1061.44" y1="427.5036363636364" x2="1103.0956" y2="427.5036363636364" stroke="#69777c"/><line x1="1129.4044000000001" y1="427.5036363636364" x2="1171.06" y2="427.5036363636364" stroke="#69777c"/><line x1="1116.25" y1="416.48960000000005" x2="1116.25" y2="368.71040000000005" stroke="#45545a" stroke-width="1.4"/><polyline points="1109.6728,375.53600000000006 1116.25,368.71040000000005 1122.8272,375.53600000000006" fill="none" stroke="#45545a"/><line x1="205.0" y1="479.0" x2="205.0" y2="608.6" stroke="#b95336" stroke-width="8"/><text x="198.25" y="543.8" font-size="6" text-anchor="middle" font-weight="400" fill="#873923" transform="rotate(-90 198.25 543.8)">Project-car door</text><line x1="205.0" y1="376.40000000000003" x2="205.0" y2="419.6" stroke="#b95336" stroke-width="8"/><text x="198.25" y="398.0" font-size="6" text-anchor="middle" font-weight="400" fill="#873923" transform="rotate(-90 198.25 398.0)">Pedestrian entrance</text><line x1="205.0" y1="187.39999999999998" x2="205.0" y2="317.0" stroke="#b95336" stroke-width="8"/><text x="198.25" y="252.2" font-size="6" text-anchor="middle" font-weight="400" fill="#873923" transform="rotate(-90 198.25 252.2)">RC workshop door</text><line x1="245.5" y1="641.0" x2="439.9" y2="641.0" stroke="#27859a" stroke-width="8"/><text x="342.7" y="656.0" font-size="7" text-anchor="middle" font-weight="700" fill="#246b7a">PROJECT-CAR WORKSHOP WINDOW · 7,20 m</text><line x1="245.5" y1="155.0" x2="439.9" y2="155.0" stroke="#27859a" stroke-width="8"/><text x="342.7" y="145.0" font-size="7" text-anchor="middle" font-weight="700" fill="#246b7a">RC / AIRCRAFT WORKSHOP WINDOW · 7,20 m</text><line x1="205.0" y1="137.0" x2="205.0" y2="659.0" stroke="#9ea5a5" stroke-width=".6" stroke-dasharray="4 5"/><circle cx="205.0" cy="124.0" r="10" fill="#fbfaf7" stroke="#5a666a"/><text x="205.0" y="128.0" font-size="8" text-anchor="middle" font-weight="400" fill="#243238">A</text><line x1="367.0" y1="137.0" x2="367.0" y2="659.0" stroke="#9ea5a5" stroke-width=".6" stroke-dasharray="4 5"/><circle cx="367.0" cy="124.0" r="10" fill="#fbfaf7" stroke="#5a666a"/><text x="367.0" y="128.0" font-size="8" text-anchor="middle" font-weight="400" fill="#243238">B</text><line x1="529.0" y1="137.0" x2="529.0" y2="659.0" stroke="#9ea5a5" stroke-width=".6" stroke-dasharray="4 5"/><circle cx="529.0" cy="124.0" r="10" fill="#fbfaf7" stroke="#5a666a"/><text x="529.0" y="128.0" font-size="8" text-anchor="middle" font-weight="400" fill="#243238">C</text><line x1="691.0" y1="137.0" x2="691.0" y2="659.0" stroke="#9ea5a5" stroke-width=".6" stroke-dasharray="4 5"/><circle cx="691.0" cy="124.0" r="10" fill="#fbfaf7" stroke="#5a666a"/><text x="691.0" y="128.0" font-size="8" text-anchor="middle" font-weight="400" fill="#243238">D</text><line x1="853.0" y1="137.0" x2="853.0" y2="659.0" stroke="#9ea5a5" stroke-width=".6" stroke-dasharray="4 5"/><circle cx="853.0" cy="124.0" r="10" fill="#fbfaf7" stroke="#5a666a"/><text x="853.0" y="128.0" font-size="8" text-anchor="middle" font-weight="400" fill="#243238">E</text><line x1="1015.0" y1="137.0" x2="1015.0" y2="659.0" stroke="#9ea5a5" stroke-width=".6" stroke-dasharray="4 5"/><circle cx="1015.0" cy="124.0" r="10" fill="#fbfaf7" stroke="#5a666a"/><text x="1015.0" y="128.0" font-size="8" text-anchor="middle" font-weight="400" fill="#243238">F</text><line x1="1177.0" y1="137.0" x2="1177.0" y2="659.0" stroke="#9ea5a5" stroke-width=".6" stroke-dasharray="4 5"/><circle cx="1177.0" cy="124.0" r="10" fill="#fbfaf7" stroke="#5a666a"/><text x="1177.0" y="128.0" font-size="8" text-anchor="middle" font-weight="400" fill="#243238">G</text><line x1="205.0" y1="683.0" x2="1177.0" y2="683.0" stroke="#536166"/><line x1="205.0" y1="677.0" x2="205.0" y2="689.0" stroke="#536166"/><line x1="488.5" y1="677.0" x2="488.5" y2="689.0" stroke="#536166"/><line x1="772.0" y1="677.0" x2="772.0" y2="689.0" stroke="#536166"/><line x1="1055.5" y1="677.0" x2="1055.5" y2="689.0" stroke="#536166"/><line x1="1177.0" y1="677.0" x2="1177.0" y2="689.0" stroke="#536166"/><text x="346.75" y="676.0" font-size="8" text-anchor="middle" font-weight="400" fill="#243238">10.50</text><text x="630.25" y="676.0" font-size="8" text-anchor="middle" font-weight="400" fill="#243238">10.50</text><text x="913.75" y="676.0" font-size="8" text-anchor="middle" font-weight="400" fill="#243238">10.50</text><text x="1116.25" y="676.0" font-size="8" text-anchor="middle" font-weight="400" fill="#243238">4,50</text><text x="691.0" y="708.0" font-size="10" text-anchor="middle" font-weight="700" fill="#243238">36.00 m nominal external length</text><rect x="70" y="735" width="1260" height="110" fill="#fff4df" stroke="#bd5c3c" stroke-width="1"/><text x="90" y="760" font-size="13" text-anchor="start" font-weight="700" fill="#8e3825">COORDINATION BASIS</text><text x="90" y="782" font-size="9" text-anchor="start" font-weight="400" fill="#3f4c51">• Wall thicknesses remain study values; D-068 changes workstation coordination only.</text><text x="90" y="800" font-size="9" text-anchor="start" font-weight="400" fill="#3f4c51">• The Great Wall, flush service doors and legible stair portal remain unchanged.</text><text x="90" y="818" font-size="9" text-anchor="start" font-weight="400" fill="#3f4c51">• Slab, lift, drainage, structure, fire, extraction and MEP remain professional design gates.</text><text x="90" y="836" font-size="9" text-anchor="start" font-weight="700" fill="#8e3825">• NOT FOR CONSTRUCTION. Worktops and equipment remain coordination envelopes pending real product data.</text></svg>